<svg xmlns="http://www.w3.org/2000/svg" width="900" height="706" viewBox="0 0 900 706" role="img" aria-labelledby="notemd-gallery-data-flow-platform-title notemd-gallery-data-flow-platform-desc" data-notemd-renderer="notemd-reference-layouts@1.1.0" data-layout-safety="notemd-layout-safety@1.0.0">
        <title id="notemd-gallery-data-flow-platform-title">Role-scoped data flow</title>
        <desc id="notemd-gallery-data-flow-platform-desc">Use for a typed data pipeline where each role owns a stage and payload handoff.</desc>
        <style>
        .ref-canvas { fill: #f8fafc; }
        .ref-title { fill: #172033; font: 700 26px "Segoe UI", Arial, sans-serif; }
        .ref-summary { fill: #64748b; font: 13px "Segoe UI", Arial, sans-serif; }
        .ref-zone { fill: #ffffff; stroke: #cbd5e1; stroke-width: 1; }
        .ref-zone-label { fill: #64748b; font: 700 10px "Segoe UI", Arial, sans-serif; letter-spacing: 1.5px; }
        .ref-node { fill: #ffffff; stroke: #cbd5e1; stroke-width: 1.2; }
        .ref-node.focal { fill: #fff7ed; stroke: #c2410c; stroke-width: 1.8; }
        .ref-node.external { stroke-dasharray: 5 4; }
        .ref-node-label { fill: #172033; font: 600 13px "Segoe UI", Arial, sans-serif; }
        .ref-header-label { fill: #ffffff; font: 600 11px "Segoe UI", Arial, sans-serif; }
        .ref-node-sub { fill: #64748b; font: 10px Consolas, monospace; }
        .ref-edge { fill: none; stroke: #64748b; stroke-width: 1.5; }
        .ref-edge.accent { stroke: #c2410c; stroke-width: 2; marker-end: url(#notemd-reference-arrow-accent); }
        .ref-edge.link { stroke: #1d4ed8; marker-end: url(#notemd-reference-arrow-link); }
        .ref-edge.trigger { stroke-dasharray: 5 4; }
        .ref-edge.dashed { stroke-dasharray: 5 4; }
        .ref-edge-label { fill: #64748b; font: 10px Consolas, monospace; paint-order: stroke; stroke: #f8fafc; stroke-width: 5px; }
        .ref-axis { stroke: #cbd5e1; stroke-width: 1; }
        .ref-axis-label { fill: #64748b; font: 10px Consolas, monospace; }
        .ref-chip { fill: #e2e8f0; stroke: #cbd5e1; stroke-width: .7; }
        .ref-chip-text { fill: #172033; font: 700 8px Consolas, monospace; }
        .ref-focal-fill { fill: #fff7ed; stroke: #c2410c; stroke-width: 1.8; }
        .ref-caption { fill: #64748b; font: 10px Consolas, monospace; letter-spacing: .8px; }
    </style>
        <defs>
        <marker id="notemd-reference-arrow" markerWidth="8" markerHeight="8" refX="7" refY="4" orient="auto"><path d="M0 0 L8 4 L0 8 Z" fill="#64748b"/></marker>
        <marker id="notemd-reference-arrow-accent" markerWidth="8" markerHeight="8" refX="7" refY="4" orient="auto"><path d="M0 0 L8 4 L0 8 Z" fill="#c2410c"/></marker>
        <marker id="notemd-reference-arrow-link" markerWidth="8" markerHeight="8" refX="7" refY="4" orient="auto"><path d="M0 0 L8 4 L0 8 Z" fill="#1d4ed8"/></marker>
    </defs>
        <rect class="ref-canvas" x="0" y="0" width="900" height="706"/>
        <text x="40" y="42" text-anchor="start" class="ref-title" data-layout-safety="notemd-layout-safety@1.0.0"><tspan x="40" dy="0">Role-scoped data flow</tspan></text>
        <text x="40" y="66" text-anchor="start" class="ref-summary" data-layout-safety="notemd-layout-safety@1.0.0"><tspan x="40" dy="0">A bounded pipeline with explicit role and payload transitions.</tspan></text>
        <g id="reference-step-collect"><rect class="ref-chip" x="198" y="78" width="46" height="20" rx="5"/><text class="ref-caption" x="221" y="92" text-anchor="middle">01</text><text x="221" y="122" text-anchor="middle" class="ref-node-label" data-layout-safety="notemd-layout-safety@1.0.0"><tspan x="221" dy="0">COLLECT</tspan></text></g><g id="reference-step-store"><rect class="ref-chip" x="340" y="78" width="46" height="20" rx="5"/><text class="ref-caption" x="363" y="92" text-anchor="middle">02</text><text x="363" y="122" text-anchor="middle" class="ref-node-label" data-layout-safety="notemd-layout-safety@1.0.0"><tspan x="363" dy="0">STORE</tspan></text></g><g id="reference-step-transform"><rect class="ref-chip" x="482" y="78" width="46" height="20" rx="5"/><text class="ref-caption" x="505" y="92" text-anchor="middle">03</text><text x="505" y="122" text-anchor="middle" class="ref-node-label" data-layout-safety="notemd-layout-safety@1.0.0"><tspan x="505" dy="0">TRANSFORM</tspan></text></g><g id="reference-step-analyze"><rect class="ref-chip" x="624" y="78" width="46" height="20" rx="5"/><text class="ref-caption" x="647" y="92" text-anchor="middle">04</text><text x="647" y="122" text-anchor="middle" class="ref-node-label" data-layout-safety="notemd-layout-safety@1.0.0"><tspan x="647" dy="0">ANALYZE</tspan></text></g><g id="reference-step-publish"><rect class="ref-chip" x="766" y="78" width="46" height="20" rx="5"/><text class="ref-caption" x="789" y="92" text-anchor="middle">05</text><text x="789" y="122" text-anchor="middle" class="ref-node-label" data-layout-safety="notemd-layout-safety@1.0.0"><tspan x="789" dy="0">PUBLISH</tspan></text></g><g id="reference-lane-admin"><rect class="ref-zone" x="0" y="132" width="900" height="132" rx="0"/><text class="ref-zone-label" x="18" y="170">ADMINS</text></g><g id="reference-lane-engineer"><rect class="ref-zone" x="0" y="264" width="900" height="132" rx="0"/><text class="ref-zone-label" x="18" y="302">ENGINEERS</text></g><g id="reference-lane-scientist"><rect class="ref-zone" x="0" y="396" width="900" height="132" rx="0"/><text class="ref-zone-label" x="18" y="434">SCIENTISTS</text></g><g id="reference-lane-consumer"><rect class="ref-zone" x="0" y="528" width="900" height="132" rx="0"/><text class="ref-zone-label" x="18" y="566">CONSUMERS</text></g><g id="reference-lane-edge-0"><path class="ref-edge " marker-end="url(#notemd-reference-arrow)" d="M 280 194 H 284 Q 292 194 292 202 V 186 Q 292 194 300 194 H 304"/></g><g id="reference-lane-edge-1"><path class="ref-edge trigger dashed" marker-end="url(#notemd-reference-arrow)" d="M 280 194 H 213 Q 221 194 221 202 V 318 Q 221 326 229 326 H 162"/></g><g id="reference-lane-edge-2"><path class="ref-edge " marker-end="url(#notemd-reference-arrow)" d="M 280 326 H 284 Q 292 326 292 334 V 318 Q 292 326 300 326 H 304"/></g><g id="reference-lane-edge-3"><path class="ref-edge " marker-end="url(#notemd-reference-arrow)" d="M 422 326 H 426 Q 434 326 434 334 V 318 Q 434 326 442 326 H 446"/></g><g id="reference-lane-edge-4"><path class="ref-edge accent" marker-end="url(#notemd-reference-arrow-accent)" d="M 564 326 H 568 Q 576 326 576 334 V 450 Q 576 458 584 458 H 588"/><text class="ref-edge-label" x="576" y="317" text-anchor="middle">anon table</text></g><g id="reference-lane-edge-5"><path class="ref-edge " marker-end="url(#notemd-reference-arrow)" d="M 706 458 H 710 Q 718 458 718 466 V 450 Q 718 458 726 458 H 730"/></g><g id="reference-lane-edge-6"><path class="ref-edge link" marker-end="url(#notemd-reference-arrow-link)" d="M 848 458 H 781 Q 789 458 789 466 V 582 Q 789 590 797 590 H 730"/></g><g id="reference-cell-admin-collect"><rect class="ref-node" x="162" y="146" width="118" height="96" rx="5"/><text x="221" y="168" text-anchor="middle" class="ref-node-label" data-layout-safety="notemd-layout-safety@1.0.0"><tspan x="221" dy="0">Project setup</tspan></text><text x="221" y="183" text-anchor="middle" class="ref-node-sub" data-layout-safety="notemd-layout-safety@1.0.0"><tspan x="221" dy="0">roles</tspan></text><text x="221" y="200" text-anchor="middle" class="ref-node-sub" data-layout-safety="notemd-layout-safety@1.0.0"><tspan x="221" dy="0">console</tspan></text></g><g id="reference-cell-admin-store"><rect class="ref-node" x="304" y="146" width="118" height="96" rx="5"/><text x="363" y="168" text-anchor="middle" class="ref-node-label" data-layout-safety="notemd-layout-safety@1.0.0"><tspan x="363" dy="0">Access policy</tspan></text><text x="363" y="183" text-anchor="middle" class="ref-node-sub" data-layout-safety="notemd-layout-safety@1.0.0"><tspan x="363" dy="0">RBAC</tspan></text><text x="363" y="200" text-anchor="middle" class="ref-node-sub" data-layout-safety="notemd-layout-safety@1.0.0"><tspan x="363" dy="0">identity</tspan></text></g><g id="reference-cell-engineer-collect"><rect class="ref-node" x="162" y="278" width="118" height="96" rx="5"/><text x="221" y="300" text-anchor="middle" class="ref-node-label" data-layout-safety="notemd-layout-safety@1.0.0"><tspan x="221" dy="0">Source ingest</tspan></text><text x="221" y="315" text-anchor="middle" class="ref-node-sub" data-layout-safety="notemd-layout-safety@1.0.0"><tspan x="221" dy="0">raw files</tspan></text><text x="221" y="332" text-anchor="middle" class="ref-node-sub" data-layout-safety="notemd-layout-safety@1.0.0"><tspan x="221" dy="0">API · SFTP</tspan></text><rect class="ref-chip" x="168" y="357" width="22" height="11" rx="3"/><text class="ref-chip-text" x="179" y="365" text-anchor="middle"/><rect class="ref-chip" x="252" y="357" width="22" height="11" rx="3"/><text class="ref-chip-text" x="263" y="365" text-anchor="middle">DB</text></g><g id="reference-cell-engineer-store"><rect class="ref-node" x="304" y="278" width="118" height="96" rx="5"/><text x="363" y="300" text-anchor="middle" class="ref-node-label" data-layout-safety="notemd-layout-safety@1.0.0"><tspan x="363" dy="0">Raw store</tspan></text><text x="363" y="315" text-anchor="middle" class="ref-node-sub" data-layout-safety="notemd-layout-safety@1.0.0"><tspan x="363" dy="0">landing zone</tspan></text><text x="363" y="332" text-anchor="middle" class="ref-node-sub" data-layout-safety="notemd-layout-safety@1.0.0"><tspan x="363" dy="0">object store</tspan></text><rect class="ref-chip" x="310" y="357" width="22" height="11" rx="3"/><text class="ref-chip-text" x="321" y="365" text-anchor="middle">DB</text><rect class="ref-chip" x="394" y="357" width="22" height="11" rx="3"/><text class="ref-chip-text" x="405" y="365" text-anchor="middle">DB</text></g><g id="reference-cell-engineer-transform"><rect class="ref-node" x="446" y="278" width="118" height="96" rx="5"/><text x="505" y="300" text-anchor="middle" class="ref-node-label" data-layout-safety="notemd-layout-safety@1.0.0"><tspan x="505" dy="0">Clean &amp; stage</tspan></text><text x="505" y="315" text-anchor="middle" class="ref-node-sub" data-layout-safety="notemd-layout-safety@1.0.0"><tspan x="505" dy="0">raw → table</tspan></text><text x="505" y="332" text-anchor="middle" class="ref-node-sub" data-layout-safety="notemd-layout-safety@1.0.0"><tspan x="505" dy="0">SQL · ETL</tspan></text><rect class="ref-chip" x="452" y="357" width="22" height="11" rx="3"/><text class="ref-chip-text" x="463" y="365" text-anchor="middle">DB</text><rect class="ref-chip" x="536" y="357" width="22" height="11" rx="3"/><text class="ref-chip-text" x="547" y="365" text-anchor="middle">TB</text></g><g id="reference-cell-scientist-analyze"><rect class="ref-node focal" x="588" y="410" width="118" height="96" rx="5"/><text x="647" y="432" text-anchor="middle" class="ref-node-label" data-layout-safety="notemd-layout-safety@1.0.0"><tspan x="647" dy="0">Explore &amp;</tspan><tspan x="647" dy="15">model</tspan></text><text x="647" y="462" text-anchor="middle" class="ref-node-sub" data-layout-safety="notemd-layout-safety@1.0.0"><tspan x="647" dy="0">insights</tspan></text><text x="647" y="479" text-anchor="middle" class="ref-node-sub" data-layout-safety="notemd-layout-safety@1.0.0"><tspan x="647" dy="0">notebook</tspan></text><rect class="ref-chip" x="594" y="489" width="22" height="11" rx="3"/><text class="ref-chip-text" x="605" y="497" text-anchor="middle">TB</text><rect class="ref-chip" x="678" y="489" width="22" height="11" rx="3"/><text class="ref-chip-text" x="689" y="497" text-anchor="middle">FL</text></g><g id="reference-cell-scientist-publish"><rect class="ref-node" x="730" y="410" width="118" height="96" rx="5"/><text x="789" y="432" text-anchor="middle" class="ref-node-label" data-layout-safety="notemd-layout-safety@1.0.0"><tspan x="789" dy="0">Publish</tspan><tspan x="789" dy="15">findings</tspan></text><text x="789" y="462" text-anchor="middle" class="ref-node-sub" data-layout-safety="notemd-layout-safety@1.0.0"><tspan x="789" dy="0">dashboards</tspan></text><text x="789" y="479" text-anchor="middle" class="ref-node-sub" data-layout-safety="notemd-layout-safety@1.0.0"><tspan x="789" dy="0">BI</tspan></text><rect class="ref-chip" x="736" y="489" width="22" height="11" rx="3"/><text class="ref-chip-text" x="747" y="497" text-anchor="middle">FL</text><rect class="ref-chip" x="820" y="489" width="22" height="11" rx="3"/><text class="ref-chip-text" x="831" y="497" text-anchor="middle">FL</text></g><g id="reference-cell-consumer-publish"><rect class="ref-node" x="730" y="542" width="118" height="96" rx="5"/><text x="789" y="564" text-anchor="middle" class="ref-node-label" data-layout-safety="notemd-layout-safety@1.0.0"><tspan x="789" dy="0">Query insights</tspan></text><text x="789" y="594" text-anchor="middle" class="ref-node-sub" data-layout-safety="notemd-layout-safety@1.0.0"><tspan x="789" dy="0">read-only</tspan></text><text x="789" y="611" text-anchor="middle" class="ref-node-sub" data-layout-safety="notemd-layout-safety@1.0.0"><tspan x="789" dy="0">SQL</tspan></text><rect class="ref-chip" x="736" y="621" width="22" height="11" rx="3"/><text class="ref-chip-text" x="747" y="629" text-anchor="middle">TB</text><rect class="ref-chip" x="820" y="621" width="22" height="11" rx="3"/><text class="ref-chip-text" x="831" y="629" text-anchor="middle">TB</text></g>
    </svg>