<svg xmlns="http://www.w3.org/2000/svg" xmlns:xlink="http://www.w3.org/1999/xlink" version="1.1" class="marks" width="689" height="407" viewBox="0 0 689 407" role="img" aria-labelledby="notemd-gallery-scatter-plot-quality-title notemd-gallery-scatter-plot-quality-desc"><title id="notemd-gallery-scatter-plot-quality-title">Quality and latency</title><desc id="notemd-gallery-scatter-plot-quality-desc">Use for paired numeric observations where correlation or outliers matter.</desc><rect width="689" height="407" fill="#ffffff"/><g fill="none" stroke-miterlimit="10" transform="translate(39,10)"><g class="mark-group role-frame root" role="graphics-object" aria-roledescription="group mark container"><g transform="translate(0,0)"><path class="background" aria-hidden="true" d="M0,0h640v360h-640Z"/><g><g class="mark-group role-axis" aria-hidden="true"><g transform="translate(0.5,360.5)"><path class="background" aria-hidden="true" d="M0,0h0v0h0Z" pointer-events="none"/><g><g class="mark-rule role-axis-grid" pointer-events="none"><line transform="translate(0,-360)" x2="0" y2="360" stroke="#e2e8f0" stroke-width="1" opacity="1"/><line transform="translate(53,-360)" x2="0" y2="360" stroke="#e2e8f0" stroke-width="1" opacity="1"/><line transform="translate(107,-360)" x2="0" y2="360" stroke="#e2e8f0" stroke-width="1" opacity="1"/><line transform="translate(160,-360)" x2="0" y2="360" stroke="#e2e8f0" stroke-width="1" opacity="1"/><line transform="translate(213,-360)" x2="0" y2="360" stroke="#e2e8f0" stroke-width="1" opacity="1"/><line transform="translate(267,-360)" x2="0" y2="360" stroke="#e2e8f0" stroke-width="1" opacity="1"/><line transform="translate(320,-360)" x2="0" y2="360" stroke="#e2e8f0" stroke-width="1" opacity="1"/><line transform="translate(373,-360)" x2="0" y2="360" stroke="#e2e8f0" stroke-width="1" opacity="1"/><line transform="translate(427,-360)" x2="0" y2="360" stroke="#e2e8f0" stroke-width="1" opacity="1"/><line transform="translate(480,-360)" x2="0" y2="360" stroke="#e2e8f0" stroke-width="1" opacity="1"/><line transform="translate(533,-360)" x2="0" y2="360" stroke="#e2e8f0" stroke-width="1" opacity="1"/><line transform="translate(587,-360)" x2="0" y2="360" stroke="#e2e8f0" stroke-width="1" opacity="1"/><line transform="translate(640,-360)" x2="0" y2="360" stroke="#e2e8f0" stroke-width="1" opacity="1"/></g></g><path class="foreground" aria-hidden="true" d="" pointer-events="none" display="none"/></g></g><g class="mark-group role-axis" aria-hidden="true"><g transform="translate(0.5,0.5)"><path class="background" aria-hidden="true" d="M0,0h0v0h0Z" pointer-events="none"/><g><g class="mark-rule role-axis-grid" pointer-events="none"><line transform="translate(0,360)" x2="640" y2="0" stroke="#e2e8f0" stroke-width="1" opacity="1"/><line transform="translate(0,300)" x2="640" y2="0" stroke="#e2e8f0" stroke-width="1" opacity="1"/><line transform="translate(0,240)" x2="640" y2="0" stroke="#e2e8f0" stroke-width="1" opacity="1"/><line transform="translate(0,180)" x2="640" y2="0" stroke="#e2e8f0" stroke-width="1" opacity="1"/><line transform="translate(0,120)" x2="640" y2="0" stroke="#e2e8f0" stroke-width="1" opacity="1"/><line transform="translate(0,60)" x2="640" y2="0" stroke="#e2e8f0" stroke-width="1" opacity="1"/><line transform="translate(0,0)" x2="640" y2="0" stroke="#e2e8f0" stroke-width="1" opacity="1"/></g></g><path class="foreground" aria-hidden="true" d="" pointer-events="none" display="none"/></g></g><g class="mark-group role-axis" role="graphics-symbol" aria-roledescription="axis" aria-label="X-axis titled 'Category' for a linear scale with values from 0 to 6"><g transform="translate(0.5,360.5)"><path class="background" aria-hidden="true" d="M0,0h0v0h0Z" pointer-events="none"/><g><g class="mark-rule role-axis-tick" pointer-events="none"><line transform="translate(0,0)" x2="0" y2="5" stroke="#94a3b8" stroke-width="1" opacity="1"/><line transform="translate(53,0)" x2="0" y2="5" stroke="#94a3b8" stroke-width="1" opacity="1"/><line transform="translate(107,0)" x2="0" y2="5" stroke="#94a3b8" stroke-width="1" opacity="1"/><line transform="translate(160,0)" x2="0" y2="5" stroke="#94a3b8" stroke-width="1" opacity="1"/><line transform="translate(213,0)" x2="0" y2="5" stroke="#94a3b8" stroke-width="1" opacity="1"/><line transform="translate(267,0)" x2="0" y2="5" stroke="#94a3b8" stroke-width="1" opacity="1"/><line transform="translate(320,0)" x2="0" y2="5" stroke="#94a3b8" stroke-width="1" opacity="1"/><line transform="translate(373,0)" x2="0" y2="5" stroke="#94a3b8" stroke-width="1" opacity="1"/><line transform="translate(427,0)" x2="0" y2="5" stroke="#94a3b8" stroke-width="1" opacity="1"/><line transform="translate(480,0)" x2="0" y2="5" stroke="#94a3b8" stroke-width="1" opacity="1"/><line transform="translate(533,0)" x2="0" y2="5" stroke="#94a3b8" stroke-width="1" opacity="1"/><line transform="translate(587,0)" x2="0" y2="5" stroke="#94a3b8" stroke-width="1" opacity="1"/><line transform="translate(640,0)" x2="0" y2="5" stroke="#94a3b8" stroke-width="1" opacity="1"/></g><g class="mark-text role-axis-label" pointer-events="none"><text text-anchor="start" transform="translate(0,15)" font-family="sans-serif" font-size="10px" fill="#0f172a" opacity="1">0.0</text><text text-anchor="middle" transform="translate(53.33333333333333,15)" font-family="sans-serif" font-size="10px" fill="#0f172a" opacity="1">0.5</text><text text-anchor="middle" transform="translate(106.66666666666666,15)" font-family="sans-serif" font-size="10px" fill="#0f172a" opacity="1">1.0</text><text text-anchor="middle" transform="translate(160,15)" font-family="sans-serif" font-size="10px" fill="#0f172a" opacity="1">1.5</text><text text-anchor="middle" transform="translate(213.33333333333331,15)" font-family="sans-serif" font-size="10px" fill="#0f172a" opacity="1">2.0</text><text text-anchor="middle" transform="translate(266.6666666666667,15)" font-family="sans-serif" font-size="10px" fill="#0f172a" opacity="1">2.5</text><text text-anchor="middle" transform="translate(320,15)" font-family="sans-serif" font-size="10px" fill="#0f172a" opacity="1">3.0</text><text text-anchor="middle" transform="translate(373.33333333333337,15)" font-family="sans-serif" font-size="10px" fill="#0f172a" opacity="1">3.5</text><text text-anchor="middle" transform="translate(426.66666666666663,15)" font-family="sans-serif" font-size="10px" fill="#0f172a" opacity="1">4.0</text><text text-anchor="middle" transform="translate(480,15)" font-family="sans-serif" font-size="10px" fill="#0f172a" opacity="1">4.5</text><text text-anchor="middle" transform="translate(533.3333333333334,15)" font-family="sans-serif" font-size="10px" fill="#0f172a" opacity="1">5.0</text><text text-anchor="middle" transform="translate(586.6666666666666,15)" font-family="sans-serif" font-size="10px" fill="#0f172a" opacity="1">5.5</text><text text-anchor="end" transform="translate(640,15)" font-family="sans-serif" font-size="10px" fill="#0f172a" opacity="1">6.0</text></g><g class="mark-rule role-axis-domain" pointer-events="none"><line transform="translate(0,0)" x2="640" y2="0" stroke="#cbd5e1" stroke-width="1" opacity="1"/></g><g class="mark-text role-axis-title" pointer-events="none"><text text-anchor="middle" transform="translate(320,30)" font-family="sans-serif" font-size="11px" font-weight="bold" fill="#0f172a" opacity="1">Category</text></g></g><path class="foreground" aria-hidden="true" d="" pointer-events="none" display="none"/></g></g><g class="mark-group role-axis" role="graphics-symbol" aria-roledescription="axis" aria-label="Y-axis titled 'Value' for a linear scale with values from 0 to 30"><g transform="translate(0.5,0.5)"><path class="background" aria-hidden="true" d="M0,0h0v0h0Z" pointer-events="none"/><g><g class="mark-rule role-axis-tick" pointer-events="none"><line transform="translate(0,360)" x2="-5" y2="0" stroke="#94a3b8" stroke-width="1" opacity="1"/><line transform="translate(0,300)" x2="-5" y2="0" stroke="#94a3b8" stroke-width="1" opacity="1"/><line transform="translate(0,240)" x2="-5" y2="0" stroke="#94a3b8" stroke-width="1" opacity="1"/><line transform="translate(0,180)" x2="-5" y2="0" stroke="#94a3b8" stroke-width="1" opacity="1"/><line transform="translate(0,120)" x2="-5" y2="0" stroke="#94a3b8" stroke-width="1" opacity="1"/><line transform="translate(0,60)" x2="-5" y2="0" stroke="#94a3b8" stroke-width="1" opacity="1"/><line transform="translate(0,0)" x2="-5" y2="0" stroke="#94a3b8" stroke-width="1" opacity="1"/></g><g class="mark-text role-axis-label" pointer-events="none"><text text-anchor="end" transform="translate(-7,363)" font-family="sans-serif" font-size="10px" fill="#0f172a" opacity="1">0</text><text text-anchor="end" transform="translate(-7,303)" font-family="sans-serif" font-size="10px" fill="#0f172a" opacity="1">5</text><text text-anchor="end" transform="translate(-7,243.00000000000003)" font-family="sans-serif" font-size="10px" fill="#0f172a" opacity="1">10</text><text text-anchor="end" transform="translate(-7,183)" font-family="sans-serif" font-size="10px" fill="#0f172a" opacity="1">15</text><text text-anchor="end" transform="translate(-7,123.00000000000001)" font-family="sans-serif" font-size="10px" fill="#0f172a" opacity="1">20</text><text text-anchor="end" transform="translate(-7,62.999999999999986)" font-family="sans-serif" font-size="10px" fill="#0f172a" opacity="1">25</text><text text-anchor="end" transform="translate(-7,3)" font-family="sans-serif" font-size="10px" fill="#0f172a" opacity="1">30</text></g><g class="mark-rule role-axis-domain" pointer-events="none"><line transform="translate(0,360)" x2="0" y2="-360" stroke="#cbd5e1" stroke-width="1" opacity="1"/></g><g class="mark-text role-axis-title" pointer-events="none"><text text-anchor="middle" transform="translate(-22.728515625,180) rotate(-90) translate(0,-2)" font-family="sans-serif" font-size="11px" font-weight="bold" fill="#0f172a" opacity="1">Value</text></g></g><path class="foreground" aria-hidden="true" d="" pointer-events="none" display="none"/></g></g><g class="mark-symbol role-mark marks" role="graphics-object" aria-roledescription="symbol mark container"><path aria-label="Category: 1; Value: 12" role="graphics-symbol" aria-roledescription="point" transform="translate(106.66666666666666,216)" d="M2.739,0A2.739,2.739,0,1,1,-2.739,0A2.739,2.739,0,1,1,2.739,0" stroke="#4c78a8" stroke-width="2" opacity="0.7"/><path aria-label="Category: 2; Value: 15" role="graphics-symbol" aria-roledescription="point" transform="translate(213.33333333333331,180)" d="M2.739,0A2.739,2.739,0,1,1,-2.739,0A2.739,2.739,0,1,1,2.739,0" stroke="#4c78a8" stroke-width="2" opacity="0.7"/><path aria-label="Category: 3; Value: 18" role="graphics-symbol" aria-roledescription="point" transform="translate(320,144)" d="M2.739,0A2.739,2.739,0,1,1,-2.739,0A2.739,2.739,0,1,1,2.739,0" stroke="#4c78a8" stroke-width="2" opacity="0.7"/><path aria-label="Category: 4; Value: 20" role="graphics-symbol" aria-roledescription="point" transform="translate(426.66666666666663,120.00000000000001)" d="M2.739,0A2.739,2.739,0,1,1,-2.739,0A2.739,2.739,0,1,1,2.739,0" stroke="#4c78a8" stroke-width="2" opacity="0.7"/><path aria-label="Category: 5; Value: 23" role="graphics-symbol" aria-roledescription="point" transform="translate(533.3333333333334,83.99999999999999)" d="M2.739,0A2.739,2.739,0,1,1,-2.739,0A2.739,2.739,0,1,1,2.739,0" stroke="#4c78a8" stroke-width="2" opacity="0.7"/><path aria-label="Category: 6; Value: 29" role="graphics-symbol" aria-roledescription="point" transform="translate(640,11.999999999999996)" d="M2.739,0A2.739,2.739,0,1,1,-2.739,0A2.739,2.739,0,1,1,2.739,0" stroke="#4c78a8" stroke-width="2" opacity="0.7"/></g></g><path class="foreground" aria-hidden="true" d="" display="none"/></g></g></g></svg>